<svg width="15" height="20" viewBox="0 0 15 20" fill="none" xmlns="http://www.w3.org/2000/svg">
<path d="M14.027 12.9454C13.877 12.7994 13.6989 12.6835 13.5029 12.6045C13.3068 12.5254 13.0967 12.4847 12.8845 12.4847C12.6722 12.4847 12.4621 12.5254 12.2661 12.6045C12.07 12.6835 11.8919 12.7994 11.7419 12.9454L9.11532 15.5012V1.57181C9.11532 1.15494 8.94513 0.755144 8.64219 0.460373C8.33926 0.165601 7.92839 0 7.49997 0C7.07155 0 6.66068 0.165601 6.35775 0.460373C6.05481 0.755144 5.88462 1.15494 5.88462 1.57181V15.5012L3.25807 12.9454C2.95518 12.6506 2.54432 12.4849 2.11586 12.4848C1.68741 12.4847 1.27647 12.6502 0.973433 12.9449C0.6704 13.2396 0.500101 13.6394 0.5 14.0563C0.499899 14.4732 0.670004 14.8731 0.972895 15.168L4.83465 18.9257C5.18465 19.2663 5.60018 19.5365 6.05749 19.7208C6.51481 19.9051 7.00497 20 7.49997 20C7.99497 20 8.48513 19.9051 8.94245 19.7208C9.39977 19.5365 9.81529 19.2663 10.1653 18.9257L14.027 15.168C14.3299 14.8732 14.5 14.4735 14.5 14.0567C14.5 13.6399 14.3299 13.2402 14.027 12.9454Z" fill="#0068FF"/>
</svg>
