<svg width="1218" height="545" viewBox="0 0 1218 545" fill="none" xmlns="http://www.w3.org/2000/svg">
<g filter="url(#filter0_d_475_231)">
<path d="M573 6C581.284 6 588 12.7157 588 21V164C588 172.284 581.284 179 573 179H437C427.611 179 420 186.611 420 196V328C420 336.284 413.284 343 405 343H21C12.7157 343 6 336.284 6 328V21C6 12.7157 12.7157 6 21 6H573Z" fill="white" stroke="#067CFF" stroke-width="2"/>
<path d="M176.334 51.17H129.675C128.438 51.17 127.251 51.6608 126.376 52.5345C125.501 53.4081 125.009 54.593 125.009 55.8286V71.0621L113.811 51.6824C112.994 50.2596 111.815 49.0773 110.394 48.2552C108.972 47.433 107.359 47 105.716 47C104.073 47 102.459 47.433 101.038 48.2552C99.6165 49.0773 98.4376 50.2596 97.6205 51.6824L69.6251 100.085C69.2156 100.793 69 101.597 69 102.414C69 103.232 69.2156 104.035 69.6251 104.744C70.0362 105.454 70.6281 106.044 71.341 106.453C72.0538 106.862 72.8623 107.076 73.6844 107.073H93.7011C92.7952 110.096 92.3393 113.235 92.348 116.39C92.348 125.039 95.7891 133.333 101.914 139.449C108.039 145.564 116.347 149 125.009 149C133.672 149 141.979 145.564 148.104 139.449C154.229 133.333 157.671 125.039 157.671 116.39C157.679 113.235 157.223 110.096 156.317 107.073H176.334C177.572 107.073 178.758 106.582 179.633 105.708C180.508 104.835 181 103.65 181 102.414V55.8286C181 54.593 180.508 53.4081 179.633 52.5345C178.758 51.6608 177.572 51.17 176.334 51.17ZM81.7564 97.7557L105.692 56.341L121.696 83.78C117.03 84.2985 112.531 85.8153 108.505 88.2271C104.479 90.6389 101.021 93.8889 98.367 97.7557H81.7564ZM125.009 139.683C120.395 139.683 115.885 138.317 112.048 135.757C108.212 133.198 105.221 129.56 103.456 125.304C101.69 121.048 101.228 116.364 102.128 111.846C103.028 107.327 105.25 103.177 108.513 99.9195C111.776 96.6619 115.932 94.4435 120.458 93.5447C124.983 92.6459 129.674 93.1072 133.937 94.8702C138.2 96.6332 141.844 99.6187 144.407 103.449C146.97 107.28 148.339 111.783 148.339 116.39C148.339 122.568 145.881 128.492 141.506 132.861C137.131 137.229 131.197 139.683 125.009 139.683ZM171.668 97.7557H151.791C147.554 91.7156 141.409 87.2701 134.341 85.131V60.4871H171.668V97.7557Z" fill="#067CFF"/>
<path d="M71.016 209V191H74.088V207.512L73.008 207.32L85.56 191H89.688V209H86.616V192.344L87.696 192.536L75.048 209H71.016ZM93.2263 195.416H96.3223V209H93.2263V195.416ZM104.77 195.416H107.866V209H104.77V195.416ZM94.9783 200.912H106.066V203.312H94.9783V200.912ZM128.771 206.6V212.432H126.059V209H112.475V212.432H109.763V206.6H113.267L114.131 206.648H124.043L124.811 206.6H128.771ZM112.787 195.416H126.251V208.088H123.131V196.376L124.571 197.816H114.419L115.763 196.76C115.843 197.464 115.891 198.144 115.907 198.8C115.939 199.44 115.955 200.04 115.955 200.6C115.955 202.936 115.635 204.768 114.995 206.096C114.371 207.424 113.491 208.088 112.355 208.088L111.083 207.008C112.395 206.048 113.051 203.712 113.051 200C113.051 199.28 113.027 198.536 112.979 197.768C112.931 196.984 112.867 196.2 112.787 195.416ZM131.031 209V195.416H134.103V207.44L133.167 207.224L142.455 195.416H146.487V209H143.415V196.808L144.375 197.048L134.967 209H131.031ZM149.492 209L150.188 202.208L149.492 195.416H159.332C160.644 195.416 161.668 195.72 162.404 196.328C163.156 196.936 163.532 197.776 163.532 198.848C163.532 199.84 163.156 200.64 162.404 201.248C161.668 201.84 160.636 202.192 159.308 202.304L159.548 201.728C161.116 201.76 162.316 202.08 163.148 202.688C163.98 203.296 164.396 204.152 164.396 205.256C164.396 206.424 163.972 207.344 163.124 208.016C162.292 208.672 161.132 209 159.644 209H149.492ZM152.516 208.232L151.316 206.84H158.852C159.7 206.84 160.308 206.68 160.676 206.36C161.06 206.024 161.252 205.56 161.252 204.968C161.252 204.44 161.036 204 160.604 203.648C160.188 203.296 159.484 203.12 158.492 203.12H151.988V201.104H158.036C158.852 201.104 159.444 200.944 159.812 200.624C160.196 200.288 160.388 199.856 160.388 199.328C160.388 198.816 160.22 198.4 159.884 198.08C159.564 197.744 159.02 197.576 158.252 197.576H151.34L152.516 196.208L153.188 202.208L152.516 208.232ZM166.914 209V195.416H169.986V207.44L169.05 207.224L178.338 195.416H182.37V209H179.298V196.808L180.258 197.048L170.85 209H166.914ZM203.279 206.6V212.432H200.567V209H186.983V212.432H184.271V206.6H187.775L188.639 206.648H198.551L199.319 206.6H203.279ZM187.295 195.416H200.759V208.088H197.639V196.376L199.079 197.816H188.927L190.271 196.76C190.351 197.464 190.399 198.144 190.415 198.8C190.447 199.44 190.463 200.04 190.463 200.6C190.463 202.936 190.143 204.768 189.503 206.096C188.879 207.424 187.999 208.088 186.863 208.088L185.591 207.008C186.903 206.048 187.559 203.712 187.559 200C187.559 199.28 187.535 198.536 187.487 197.768C187.439 196.984 187.375 196.2 187.295 195.416ZM208.006 213.296C207.206 213.296 206.478 213.192 205.822 212.984C205.182 212.792 204.582 212.52 204.022 212.168V209.792C204.63 210.176 205.206 210.456 205.75 210.632C206.31 210.808 206.934 210.896 207.622 210.896C208.278 210.896 208.862 210.744 209.374 210.44C209.886 210.152 210.31 209.64 210.646 208.904L216.766 195.416H220.078L213.046 209.96C212.662 210.76 212.206 211.4 211.678 211.88C211.166 212.376 210.598 212.736 209.974 212.96C209.366 213.184 208.71 213.296 208.006 213.296ZM209.566 208.568L203.326 195.416H206.758L212.662 208.568H209.566ZM233.914 209L233.386 203.96L234.01 202.208L233.386 200.48L233.914 195.416H237.13L236.41 202.208L237.13 209H233.914ZM234.874 202.208C234.57 203.632 234.066 204.88 233.362 205.952C232.658 207.024 231.786 207.856 230.746 208.448C229.722 209.04 228.578 209.336 227.314 209.336C225.986 209.336 224.81 209.04 223.786 208.448C222.762 207.84 221.962 207 221.386 205.928C220.81 204.856 220.522 203.616 220.522 202.208C220.522 200.784 220.81 199.544 221.386 198.488C221.962 197.416 222.762 196.584 223.786 195.992C224.81 195.384 225.986 195.08 227.314 195.08C228.578 195.08 229.722 195.376 230.746 195.968C231.786 196.56 232.658 197.392 233.362 198.464C234.082 199.52 234.586 200.768 234.874 202.208ZM223.69 202.208C223.69 203.12 223.874 203.928 224.242 204.632C224.626 205.32 225.146 205.864 225.802 206.264C226.458 206.648 227.21 206.84 228.058 206.84C228.922 206.84 229.722 206.648 230.458 206.264C231.194 205.864 231.842 205.32 232.402 204.632C232.978 203.928 233.434 203.12 233.77 202.208C233.434 201.296 232.978 200.496 232.402 199.808C231.842 199.104 231.194 198.56 230.458 198.176C229.722 197.776 228.922 197.576 228.058 197.576C227.21 197.576 226.458 197.776 225.802 198.176C225.146 198.56 224.626 199.104 224.242 199.808C223.874 200.496 223.69 201.296 223.69 202.208ZM242.509 195.416H255.877V209H252.757V196.376L254.197 197.816H244.069L245.413 196.712C245.493 197.704 245.557 198.648 245.605 199.544C245.669 200.424 245.701 201.216 245.701 201.92C245.701 204.48 245.341 206.344 244.621 207.512C243.901 208.68 242.741 209.264 241.141 209.264C240.709 209.264 240.293 209.216 239.893 209.12C239.493 209.024 239.109 208.872 238.741 208.664V206.336C239.029 206.448 239.309 206.536 239.581 206.6C239.869 206.664 240.133 206.696 240.373 206.696C241.253 206.696 241.885 206.288 242.269 205.472C242.669 204.656 242.869 203.328 242.869 201.488C242.869 200.688 242.837 199.776 242.773 198.752C242.725 197.728 242.637 196.616 242.509 195.416ZM259.187 209V195.416H262.307V208.136L261.203 206.696H267.011C267.859 206.696 268.523 206.488 269.003 206.072C269.483 205.64 269.723 205.056 269.723 204.32C269.723 203.568 269.483 202.984 269.003 202.568C268.523 202.136 267.859 201.92 267.011 201.92H261.299V199.688H267.419C268.523 199.688 269.483 199.888 270.299 200.288C271.115 200.672 271.747 201.216 272.195 201.92C272.659 202.608 272.891 203.416 272.891 204.344C272.891 205.272 272.659 206.088 272.195 206.792C271.747 207.496 271.115 208.04 270.299 208.424C269.483 208.808 268.531 209 267.443 209H259.187ZM275.078 195.416H278.174V209H275.078V195.416ZM286.622 195.416H289.718V209H286.622V195.416ZM276.83 200.912H287.918V203.312H276.83V200.912ZM308.295 195.416H311.415V209H308.295V195.416ZM293.031 209V195.416H296.151V208.136L295.047 206.696H300.855C301.703 206.696 302.367 206.488 302.847 206.072C303.327 205.64 303.567 205.056 303.567 204.32C303.567 203.568 303.327 202.984 302.847 202.568C302.367 202.136 301.703 201.92 300.855 201.92H295.143V199.688H301.263C302.367 199.688 303.327 199.888 304.143 200.288C304.959 200.672 305.591 201.216 306.039 201.92C306.503 202.608 306.735 203.416 306.735 204.344C306.735 205.272 306.503 206.088 306.039 206.792C305.591 207.496 304.959 208.04 304.143 208.424C303.327 208.808 302.375 209 301.287 209H293.031ZM314.734 209V195.416H317.806V207.44L316.87 207.224L326.158 195.416H330.19V209H327.118V196.808L328.078 197.048L318.67 209H314.734ZM322.39 194.048C320.95 194.048 319.79 193.688 318.91 192.968C318.046 192.248 317.51 191.208 317.302 189.848H319.822C319.95 190.584 320.238 191.152 320.686 191.552C321.134 191.936 321.702 192.128 322.39 192.128C323.078 192.128 323.646 191.936 324.094 191.552C324.542 191.152 324.83 190.584 324.958 189.848H327.454C327.262 191.208 326.726 192.248 325.846 192.968C324.966 193.688 323.814 194.048 322.39 194.048ZM85.2 225.416V239H82.08V226.4L83.52 227.816H72.336L73.776 226.4V239H70.656V225.416H85.2ZM96.0274 239.336C94.3794 239.336 92.9314 239.04 91.6834 238.448C90.4514 237.84 89.4834 237 88.7794 235.928C88.0914 234.856 87.7474 233.616 87.7474 232.208C87.7474 230.784 88.0914 229.544 88.7794 228.488C89.4834 227.416 90.4514 226.584 91.6834 225.992C92.9314 225.384 94.3794 225.08 96.0274 225.08C97.6754 225.08 99.1154 225.384 100.347 225.992C101.595 226.584 102.563 227.416 103.251 228.488C103.955 229.544 104.307 230.784 104.307 232.208C104.307 233.616 103.955 234.856 103.251 235.928C102.563 237 101.595 237.84 100.347 238.448C99.1154 239.04 97.6754 239.336 96.0274 239.336ZM96.0274 236.888C97.0834 236.888 97.9874 236.696 98.7394 236.312C99.5074 235.928 100.099 235.392 100.515 234.704C100.931 234 101.139 233.168 101.139 232.208C101.139 231.248 100.931 230.424 100.515 229.736C100.099 229.032 99.5074 228.488 98.7394 228.104C97.9874 227.72 97.0834 227.528 96.0274 227.528C94.9874 227.528 94.0834 227.72 93.3154 228.104C92.5474 228.488 91.9554 229.032 91.5394 229.736C91.1234 230.424 90.9154 231.248 90.9154 232.208C90.9154 233.168 91.1234 234 91.5394 234.704C91.9554 235.392 92.5474 235.928 93.3154 236.312C94.0834 236.696 94.9874 236.888 96.0274 236.888ZM123.92 236.6V242.432H121.208V239H107.624V242.432H104.912V236.6H108.416L109.28 236.648H119.192L119.96 236.6H123.92ZM107.936 225.416H121.4V238.088H118.28V226.376L119.72 227.816H109.568L110.912 226.76C110.992 227.464 111.04 228.144 111.056 228.8C111.088 229.44 111.104 230.04 111.104 230.6C111.104 232.936 110.784 234.768 110.144 236.096C109.52 237.424 108.64 238.088 107.504 238.088L106.232 237.008C107.544 236.048 108.2 233.712 108.2 230C108.2 229.28 108.176 228.536 108.128 227.768C108.08 226.984 108.016 226.2 107.936 225.416ZM124.379 239L130.931 231.248L130.907 232.784L124.763 225.416H128.339L132.995 230.936H131.675L136.355 225.416H139.811L133.547 232.832L133.427 231.032L140.195 239H136.619L131.531 233.048H132.899L127.859 239H124.379ZM148.316 239.336C146.668 239.336 145.22 239.04 143.972 238.448C142.74 237.84 141.772 237 141.068 235.928C140.38 234.856 140.036 233.616 140.036 232.208C140.036 230.784 140.38 229.544 141.068 228.488C141.772 227.416 142.74 226.584 143.972 225.992C145.22 225.384 146.668 225.08 148.316 225.08C149.964 225.08 151.404 225.384 152.636 225.992C153.884 226.584 154.852 227.416 155.54 228.488C156.244 229.544 156.596 230.784 156.596 232.208C156.596 233.616 156.244 234.856 155.54 235.928C154.852 237 153.884 237.84 152.636 238.448C151.404 239.04 149.964 239.336 148.316 239.336ZM148.316 236.888C149.372 236.888 150.276 236.696 151.028 236.312C151.796 235.928 152.388 235.392 152.804 234.704C153.22 234 153.428 233.168 153.428 232.208C153.428 231.248 153.22 230.424 152.804 229.736C152.388 229.032 151.796 228.488 151.028 228.104C150.276 227.72 149.372 227.528 148.316 227.528C147.276 227.528 146.372 227.72 145.604 228.104C144.836 228.488 144.244 229.032 143.828 229.736C143.412 230.424 143.204 231.248 143.204 232.208C143.204 233.168 143.412 234 143.828 234.704C144.244 235.392 144.836 235.928 145.604 236.312C146.372 236.696 147.276 236.888 148.316 236.888ZM176.209 236.6V242.432H173.497V239H159.913V242.432H157.201V236.6H160.705L161.569 236.648H171.481L172.249 236.6H176.209ZM160.225 225.416H173.689V238.088H170.569V226.376L172.009 227.816H161.857L163.201 226.76C163.281 227.464 163.329 228.144 163.345 228.8C163.377 229.44 163.393 230.04 163.393 230.6C163.393 232.936 163.073 234.768 162.433 236.096C161.809 237.424 160.929 238.088 159.793 238.088L158.521 237.008C159.833 236.048 160.489 233.712 160.489 230C160.489 229.28 160.465 228.536 160.417 227.768C160.369 226.984 160.305 226.2 160.225 225.416Z" fill="#067CFF"/>
<path d="M1197 6C1205.28 6 1212 12.7157 1212 21V328C1212 336.284 1205.28 343 1197 343H812C803.716 343 797 336.284 797 328V196C797 186.611 789.389 179 780 179H645C636.716 179 630 172.284 630 164V21C630 12.7157 636.716 6 645 6H1197Z" fill="white" stroke="#067CFF" stroke-width="2"/>
<path d="M1143 57.9201H1130.66C1129.86 57.9202 1129.09 58.1552 1128.43 58.5951C1127.78 59.0351 1127.26 59.6604 1126.96 60.3919C1126.66 61.1234 1126.58 61.9284 1126.73 62.705C1126.89 63.4816 1127.27 64.1949 1127.83 64.7549L1132.17 69.1032L1117.83 83.4576C1117.07 84.1867 1116.05 84.5936 1115 84.5936C1113.94 84.5936 1112.93 84.1867 1112.17 83.4576L1111.49 82.7729C1109.2 80.587 1106.16 79.3672 1103 79.3672C1099.84 79.3672 1096.8 80.587 1094.52 82.7729L1074.12 103.193C1073.36 103.948 1072.94 104.97 1072.94 106.036C1072.95 107.101 1073.37 108.123 1074.12 108.875C1074.88 109.627 1075.9 110.049 1076.96 110.048C1078.03 110.046 1079.05 109.622 1079.8 108.867L1100.2 88.4466C1100.96 87.7166 1101.97 87.3091 1103.03 87.3091C1104.08 87.3091 1105.1 87.7166 1105.86 88.4466L1106.54 89.1313C1108.83 91.3154 1111.86 92.5339 1115.03 92.5339C1118.19 92.5339 1121.22 91.3154 1123.51 89.1313L1137.86 74.7729L1142.2 79.1213C1142.76 79.672 1143.47 80.045 1144.24 80.1937C1145.02 80.3424 1145.81 80.2602 1146.54 79.9574C1147.26 79.6545 1147.88 79.1445 1148.32 78.4909C1148.76 77.8373 1149 77.0692 1149 76.2824V63.9261C1149 62.3332 1148.37 60.8055 1147.24 59.6792C1146.12 58.5528 1144.59 57.9201 1143 57.9201Z" fill="#067CFF"/>
<path d="M1145 129.992H1073C1069.82 129.992 1066.77 128.726 1064.51 126.474C1062.26 124.221 1061 121.166 1061 117.98V46.004C1061 44.9421 1060.58 43.9236 1059.83 43.1727C1059.08 42.4218 1058.06 42 1057 42C1055.94 42 1054.92 42.4218 1054.17 43.1727C1053.42 43.9236 1053 44.9421 1053 46.004V117.98C1053.01 123.288 1055.12 128.376 1058.86 132.129C1062.61 135.882 1067.7 137.994 1073 138H1145C1146.06 138 1147.08 137.578 1147.83 136.827C1148.58 136.076 1149 135.058 1149 133.996C1149 132.934 1148.58 131.916 1147.83 131.165C1147.08 130.414 1146.06 129.992 1145 129.992Z" fill="#067CFF"/>
<path d="M864.853 210.336C862.805 210.336 861.005 209.944 859.453 209.16C857.901 208.376 856.693 207.288 855.829 205.896C854.965 204.488 854.533 202.856 854.533 201C854.533 199.144 854.965 197.52 855.829 196.128C856.693 194.72 857.901 193.624 859.453 192.84C861.005 192.056 862.805 191.664 864.853 191.664C866.901 191.664 868.701 192.056 870.253 192.84C871.805 193.624 873.013 194.72 873.877 196.128C874.741 197.52 875.173 199.144 875.173 201C875.173 202.856 874.741 204.488 873.877 205.896C873.013 207.288 871.805 208.376 870.253 209.16C868.701 209.944 866.901 210.336 864.853 210.336ZM864.853 207.504C866.309 207.504 867.565 207.24 868.621 206.712C869.677 206.184 870.493 205.432 871.069 204.456C871.661 203.48 871.957 202.328 871.957 201C871.957 199.672 871.661 198.52 871.069 197.544C870.493 196.568 869.677 195.816 868.621 195.288C867.565 194.76 866.309 194.496 864.853 194.496C863.413 194.496 862.157 194.76 861.085 195.288C860.029 195.816 859.205 196.568 858.613 197.544C858.037 198.52 857.749 199.672 857.749 201C857.749 202.328 858.037 203.48 858.613 204.456C859.205 205.432 860.029 206.184 861.085 206.712C862.157 207.24 863.413 207.504 864.853 207.504ZM892.434 196.416V210H889.314V197.4L890.754 198.816H879.57L881.01 197.4V210H877.89V196.416H892.434ZM900.046 197.496H903.166V210H900.046V197.496ZM894.406 196.416H908.806V198.864H894.406V196.416ZM910.773 210V196.416H913.845V208.44L912.909 208.224L922.197 196.416H926.229V210H923.157V197.808L924.117 198.048L914.709 210H910.773ZM929.547 210V196.416H934.179L939.891 208.512H938.667L944.331 196.416H948.963V210H946.035V197.448H946.851L940.779 210H937.731L931.659 197.496L932.475 197.472V210H929.547ZM952.281 210V196.416H955.353V208.44L954.417 208.224L963.705 196.416H967.737V210H964.665V197.808L965.625 198.048L956.217 210H952.281ZM977.39 210.336C975.95 210.336 974.686 210.144 973.598 209.76C972.526 209.376 971.678 208.824 971.054 208.104C970.446 207.384 970.11 206.528 970.046 205.536H973.07C973.198 206.32 973.63 206.92 974.366 207.336C975.118 207.736 976.126 207.936 977.39 207.936C978.606 207.936 979.558 207.776 980.246 207.456C980.934 207.12 981.278 206.608 981.278 205.92C981.278 205.36 980.99 204.944 980.414 204.672C979.854 204.4 978.958 204.264 977.726 204.264H975.038V202.104H977.654C978.758 202.104 979.574 201.936 980.102 201.6C980.646 201.264 980.918 200.848 980.918 200.352C980.918 199.744 980.598 199.28 979.958 198.96C979.318 198.64 978.478 198.48 977.438 198.48C976.286 198.48 975.35 198.664 974.63 199.032C973.91 199.4 973.486 199.952 973.358 200.688H970.334C970.414 199.824 970.742 199.048 971.318 198.36C971.91 197.656 972.734 197.104 973.79 196.704C974.846 196.288 976.102 196.08 977.558 196.08C978.886 196.08 980.038 196.248 981.014 196.584C981.99 196.92 982.742 197.384 983.27 197.976C983.814 198.552 984.086 199.216 984.086 199.968C984.086 200.576 983.894 201.136 983.51 201.648C983.142 202.16 982.558 202.568 981.758 202.872C980.974 203.176 979.958 203.328 978.71 203.328V202.92C980.534 202.856 981.95 203.104 982.958 203.664C983.966 204.208 984.47 205.024 984.47 206.112C984.47 206.928 984.19 207.656 983.63 208.296C983.086 208.936 982.286 209.44 981.23 209.808C980.174 210.16 978.894 210.336 977.39 210.336ZM987.062 210V196.416H990.134V208.44L989.198 208.224L998.486 196.416H1002.52V210H999.446V197.808L1000.41 198.048L990.998 210H987.062ZM1005.84 196.416H1008.96V201.144L1008.81 201.624V204.36L1008.96 205.2V213.96H1005.84V196.416ZM1007.76 203.208C1008.06 201.768 1008.56 200.52 1009.27 199.464C1009.97 198.392 1010.84 197.56 1011.86 196.968C1012.9 196.376 1014.05 196.08 1015.32 196.08C1016.64 196.08 1017.82 196.384 1018.84 196.992C1019.87 197.584 1020.67 198.416 1021.24 199.488C1021.82 200.544 1022.11 201.784 1022.11 203.208C1022.11 204.616 1021.82 205.856 1021.24 206.928C1020.67 208 1019.87 208.84 1018.84 209.448C1017.82 210.04 1016.64 210.336 1015.32 210.336C1014.05 210.336 1012.91 210.04 1011.88 209.448C1010.86 208.856 1009.99 208.024 1009.27 206.952C1008.56 205.88 1008.06 204.632 1007.76 203.208ZM1018.94 203.208C1018.94 202.296 1018.75 201.496 1018.36 200.808C1018 200.104 1017.48 199.56 1016.83 199.176C1016.17 198.776 1015.42 198.576 1014.57 198.576C1013.72 198.576 1012.92 198.776 1012.17 199.176C1011.44 199.56 1010.79 200.104 1010.23 200.808C1009.67 201.496 1009.21 202.296 1008.86 203.208C1009.21 204.12 1009.67 204.928 1010.23 205.632C1010.79 206.32 1011.44 206.864 1012.17 207.264C1012.92 207.648 1013.72 207.84 1014.57 207.84C1015.42 207.84 1016.17 207.648 1016.83 207.264C1017.48 206.864 1018 206.32 1018.36 205.632C1018.75 204.928 1018.94 204.12 1018.94 203.208ZM1032.21 210.336C1030.57 210.336 1029.12 210.04 1027.87 209.448C1026.64 208.84 1025.67 208 1024.97 206.928C1024.28 205.856 1023.93 204.616 1023.93 203.208C1023.93 201.784 1024.28 200.544 1024.97 199.488C1025.67 198.416 1026.64 197.584 1027.87 196.992C1029.12 196.384 1030.57 196.08 1032.21 196.08C1033.86 196.08 1035.3 196.384 1036.53 196.992C1037.78 197.584 1038.75 198.416 1039.44 199.488C1040.14 200.544 1040.49 201.784 1040.49 203.208C1040.49 204.616 1040.14 205.856 1039.44 206.928C1038.75 208 1037.78 208.84 1036.53 209.448C1035.3 210.04 1033.86 210.336 1032.21 210.336ZM1032.21 207.888C1033.27 207.888 1034.17 207.696 1034.93 207.312C1035.69 206.928 1036.29 206.392 1036.7 205.704C1037.12 205 1037.33 204.168 1037.33 203.208C1037.33 202.248 1037.12 201.424 1036.7 200.736C1036.29 200.032 1035.69 199.488 1034.93 199.104C1034.17 198.72 1033.27 198.528 1032.21 198.528C1031.17 198.528 1030.27 198.72 1029.5 199.104C1028.73 199.488 1028.14 200.032 1027.73 200.736C1027.31 201.424 1027.1 202.248 1027.1 203.208C1027.1 204.168 1027.31 205 1027.73 205.704C1028.14 206.392 1028.73 206.928 1029.5 207.312C1030.27 207.696 1031.17 207.888 1032.21 207.888ZM1042.72 210L1043.42 203.208L1042.72 196.416H1052.56C1053.87 196.416 1054.9 196.72 1055.63 197.328C1056.38 197.936 1056.76 198.776 1056.76 199.848C1056.76 200.84 1056.38 201.64 1055.63 202.248C1054.9 202.84 1053.86 203.192 1052.54 203.304L1052.78 202.728C1054.34 202.76 1055.54 203.08 1056.38 203.688C1057.21 204.296 1057.62 205.152 1057.62 206.256C1057.62 207.424 1057.2 208.344 1056.35 209.016C1055.52 209.672 1054.36 210 1052.87 210H1042.72ZM1045.74 209.232L1044.54 207.84H1052.08C1052.93 207.84 1053.54 207.68 1053.9 207.36C1054.29 207.024 1054.48 206.56 1054.48 205.968C1054.48 205.44 1054.26 205 1053.83 204.648C1053.42 204.296 1052.71 204.12 1051.72 204.12H1045.22V202.104H1051.26C1052.08 202.104 1052.67 201.944 1053.04 201.624C1053.42 201.288 1053.62 200.856 1053.62 200.328C1053.62 199.816 1053.45 199.4 1053.11 199.08C1052.79 198.744 1052.25 198.576 1051.48 198.576H1044.57L1045.74 197.208L1046.42 203.208L1045.74 209.232ZM1072.81 210L1072.28 204.96L1072.91 203.208L1072.28 201.48L1072.81 196.416H1076.03L1075.31 203.208L1076.03 210H1072.81ZM1073.77 203.208C1073.47 204.632 1072.96 205.88 1072.26 206.952C1071.56 208.024 1070.68 208.856 1069.64 209.448C1068.62 210.04 1067.48 210.336 1066.21 210.336C1064.88 210.336 1063.71 210.04 1062.68 209.448C1061.66 208.84 1060.86 208 1060.28 206.928C1059.71 205.856 1059.42 204.616 1059.42 203.208C1059.42 201.784 1059.71 200.544 1060.28 199.488C1060.86 198.416 1061.66 197.584 1062.68 196.992C1063.71 196.384 1064.88 196.08 1066.21 196.08C1067.48 196.08 1068.62 196.376 1069.64 196.968C1070.68 197.56 1071.56 198.392 1072.26 199.464C1072.98 200.52 1073.48 201.768 1073.77 203.208ZM1062.59 203.208C1062.59 204.12 1062.77 204.928 1063.14 205.632C1063.52 206.32 1064.04 206.864 1064.7 207.264C1065.36 207.648 1066.11 207.84 1066.96 207.84C1067.82 207.84 1068.62 207.648 1069.36 207.264C1070.09 206.864 1070.74 206.32 1071.3 205.632C1071.88 204.928 1072.33 204.12 1072.67 203.208C1072.33 202.296 1071.88 201.496 1071.3 200.808C1070.74 200.104 1070.09 199.56 1069.36 199.176C1068.62 198.776 1067.82 198.576 1066.96 198.576C1066.11 198.576 1065.36 198.776 1064.7 199.176C1064.04 199.56 1063.52 200.104 1063.14 200.808C1062.77 201.496 1062.59 202.296 1062.59 203.208ZM1079.03 196.416H1082.13V210H1079.03V196.416ZM1090.58 196.416H1093.67V210H1090.58V196.416ZM1080.78 201.912H1091.87V204.312H1080.78V201.912ZM1096.98 196.416H1100.08V210H1096.98V196.416ZM1108.53 196.416H1111.62V210H1108.53V196.416ZM1098.74 201.912H1109.82V204.312H1098.74V201.912ZM1127.61 210L1127.08 204.96L1127.71 203.208L1127.08 201.48L1127.61 196.416H1130.83L1130.11 203.208L1130.83 210H1127.61ZM1128.57 203.208C1128.27 204.632 1127.76 205.88 1127.06 206.952C1126.35 208.024 1125.48 208.856 1124.44 209.448C1123.42 210.04 1122.27 210.336 1121.01 210.336C1119.68 210.336 1118.51 210.04 1117.48 209.448C1116.46 208.84 1115.66 208 1115.08 206.928C1114.51 205.856 1114.22 204.616 1114.22 203.208C1114.22 201.784 1114.51 200.544 1115.08 199.488C1115.66 198.416 1116.46 197.584 1117.48 196.992C1118.51 196.384 1119.68 196.08 1121.01 196.08C1122.27 196.08 1123.42 196.376 1124.44 196.968C1125.48 197.56 1126.35 198.392 1127.06 199.464C1127.78 200.52 1128.28 201.768 1128.57 203.208ZM1117.39 203.208C1117.39 204.12 1117.57 204.928 1117.94 205.632C1118.32 206.32 1118.84 206.864 1119.5 207.264C1120.15 207.648 1120.91 207.84 1121.75 207.84C1122.62 207.84 1123.42 207.648 1124.15 207.264C1124.89 206.864 1125.54 206.32 1126.1 205.632C1126.67 204.928 1127.13 204.12 1127.47 203.208C1127.13 202.296 1126.67 201.496 1126.1 200.808C1125.54 200.104 1124.89 199.56 1124.15 199.176C1123.42 198.776 1122.62 198.576 1121.75 198.576C1120.91 198.576 1120.15 198.776 1119.5 199.176C1118.84 199.56 1118.32 200.104 1117.94 200.808C1117.57 201.496 1117.39 202.296 1117.39 203.208ZM1145.13 202.824V205.008H1138.27L1138.22 204.936C1137.23 204.936 1136.36 204.76 1135.6 204.408C1134.85 204.056 1134.27 203.56 1133.85 202.92C1133.44 202.28 1133.23 201.536 1133.23 200.688C1133.23 199.84 1133.44 199.096 1133.85 198.456C1134.27 197.816 1134.85 197.32 1135.6 196.968C1136.36 196.6 1137.23 196.416 1138.22 196.416H1147.34V210H1144.22V197.304L1145.25 198.648H1138.89C1138.11 198.648 1137.49 198.832 1137.04 199.2C1136.61 199.568 1136.4 200.072 1136.4 200.712C1136.4 201.352 1136.61 201.864 1137.04 202.248C1137.49 202.632 1138.11 202.824 1138.89 202.824H1145.13ZM1141.6 203.64L1136.56 210H1132.94L1138.12 203.64H1141.6ZM1043.36 226.416H1046.48V231.144L1046.34 231.624V234.36L1046.48 235.2V243.96H1043.36V226.416ZM1045.28 233.208C1045.58 231.768 1046.09 230.52 1046.79 229.464C1047.5 228.392 1048.36 227.56 1049.38 226.968C1050.42 226.376 1051.58 226.08 1052.84 226.08C1054.17 226.08 1055.34 226.384 1056.37 226.992C1057.39 227.584 1058.19 228.416 1058.77 229.488C1059.34 230.544 1059.63 231.784 1059.63 233.208C1059.63 234.616 1059.34 235.856 1058.77 236.928C1058.19 238 1057.39 238.84 1056.37 239.448C1055.34 240.04 1054.17 240.336 1052.84 240.336C1051.58 240.336 1050.43 240.04 1049.41 239.448C1048.38 238.856 1047.51 238.024 1046.79 236.952C1046.09 235.88 1045.58 234.632 1045.28 233.208ZM1056.46 233.208C1056.46 232.296 1056.27 231.496 1055.89 230.808C1055.52 230.104 1055.01 229.56 1054.35 229.176C1053.7 228.776 1052.94 228.576 1052.1 228.576C1051.25 228.576 1050.45 228.776 1049.7 229.176C1048.96 229.56 1048.31 230.104 1047.75 230.808C1047.19 231.496 1046.74 232.296 1046.38 233.208C1046.74 234.12 1047.19 234.928 1047.75 235.632C1048.31 236.32 1048.96 236.864 1049.7 237.264C1050.45 237.648 1051.25 237.84 1052.1 237.84C1052.94 237.84 1053.7 237.648 1054.35 237.264C1055.01 236.864 1055.52 236.32 1055.89 235.632C1056.27 234.928 1056.46 234.12 1056.46 233.208ZM1074.9 240L1074.37 234.96L1074.99 233.208L1074.37 231.48L1074.9 226.416H1078.11L1077.39 233.208L1078.11 240H1074.9ZM1075.86 233.208C1075.55 234.632 1075.05 235.88 1074.35 236.952C1073.64 238.024 1072.77 238.856 1071.73 239.448C1070.71 240.04 1069.56 240.336 1068.3 240.336C1066.97 240.336 1065.79 240.04 1064.77 239.448C1063.75 238.84 1062.95 238 1062.37 236.928C1061.79 235.856 1061.51 234.616 1061.51 233.208C1061.51 231.784 1061.79 230.544 1062.37 229.488C1062.95 228.416 1063.75 227.584 1064.77 226.992C1065.79 226.384 1066.97 226.08 1068.3 226.08C1069.56 226.08 1070.71 226.376 1071.73 226.968C1072.77 227.56 1073.64 228.392 1074.35 229.464C1075.07 230.52 1075.57 231.768 1075.86 233.208ZM1064.67 233.208C1064.67 234.12 1064.86 234.928 1065.23 235.632C1065.61 236.32 1066.13 236.864 1066.79 237.264C1067.44 237.648 1068.19 237.84 1069.04 237.84C1069.91 237.84 1070.71 237.648 1071.44 237.264C1072.18 236.864 1072.83 236.32 1073.39 235.632C1073.96 234.928 1074.42 234.12 1074.75 233.208C1074.42 232.296 1073.96 231.496 1073.39 230.808C1072.83 230.104 1072.18 229.56 1071.44 229.176C1070.71 228.776 1069.91 228.576 1069.04 228.576C1068.19 228.576 1067.44 228.776 1066.79 229.176C1066.13 229.56 1065.61 230.104 1065.23 230.808C1064.86 231.496 1064.67 232.296 1064.67 233.208ZM1089.18 240.336C1087.37 240.336 1085.82 239.984 1084.52 239.28C1083.24 238.56 1082.26 237.528 1081.57 236.184C1080.9 234.84 1080.56 233.224 1080.56 231.336C1080.56 228.52 1081.3 226.296 1082.77 224.664C1084.24 223.032 1086.35 222.104 1089.08 221.88C1090.19 221.784 1091.1 221.704 1091.82 221.64C1092.56 221.576 1093.16 221.512 1093.62 221.448C1094.08 221.368 1094.48 221.288 1094.8 221.208C1095.13 221.128 1095.45 221.032 1095.76 220.92V223.584C1095.45 223.712 1095.04 223.832 1094.53 223.944C1094.02 224.04 1093.37 224.12 1092.59 224.184C1091.8 224.248 1090.84 224.312 1089.71 224.376C1087.56 224.488 1085.95 225.128 1084.86 226.296C1083.77 227.464 1083.23 229.128 1083.23 231.288V232.056L1083.06 231.864C1083.41 230.92 1083.92 230.12 1084.57 229.464C1085.24 228.808 1086.04 228.304 1086.97 227.952C1087.9 227.6 1088.92 227.424 1090.02 227.424C1091.41 227.424 1092.63 227.688 1093.67 228.216C1094.71 228.744 1095.52 229.488 1096.09 230.448C1096.68 231.392 1096.98 232.496 1096.98 233.76C1096.98 235.088 1096.65 236.248 1096 237.24C1095.36 238.216 1094.45 238.976 1093.28 239.52C1092.12 240.064 1090.75 240.336 1089.18 240.336ZM1089.25 237.888C1090.18 237.888 1090.98 237.72 1091.65 237.384C1092.34 237.048 1092.87 236.576 1093.24 235.968C1093.62 235.344 1093.81 234.624 1093.81 233.808C1093.81 232.992 1093.62 232.28 1093.24 231.672C1092.87 231.064 1092.34 230.592 1091.65 230.256C1090.98 229.92 1090.18 229.752 1089.25 229.752C1088 229.752 1086.9 230.088 1085.94 230.76C1085 231.432 1084.29 232.384 1083.83 233.616C1084.1 234.928 1084.72 235.968 1085.68 236.736C1086.65 237.504 1087.84 237.888 1089.25 237.888ZM1107.07 240.336C1105.43 240.336 1103.98 240.04 1102.73 239.448C1101.5 238.84 1100.53 238 1099.83 236.928C1099.14 235.856 1098.79 234.616 1098.79 233.208C1098.79 231.784 1099.14 230.544 1099.83 229.488C1100.53 228.416 1101.5 227.584 1102.73 226.992C1103.98 226.384 1105.43 226.08 1107.07 226.08C1108.72 226.08 1110.16 226.384 1111.39 226.992C1112.64 227.584 1113.61 228.416 1114.3 229.488C1115 230.544 1115.35 231.784 1115.35 233.208C1115.35 234.616 1115 235.856 1114.3 236.928C1113.61 238 1112.64 238.84 1111.39 239.448C1110.16 240.04 1108.72 240.336 1107.07 240.336ZM1107.07 237.888C1108.13 237.888 1109.03 237.696 1109.79 237.312C1110.55 236.928 1111.15 236.392 1111.56 235.704C1111.98 235 1112.19 234.168 1112.19 233.208C1112.19 232.248 1111.98 231.424 1111.56 230.736C1111.15 230.032 1110.55 229.488 1109.79 229.104C1109.03 228.72 1108.13 228.528 1107.07 228.528C1106.03 228.528 1105.13 228.72 1104.36 229.104C1103.59 229.488 1103 230.032 1102.59 230.736C1102.17 231.424 1101.96 232.248 1101.96 233.208C1101.96 234.168 1102.17 235 1102.59 235.704C1103 236.392 1103.59 236.928 1104.36 237.312C1105.13 237.696 1106.03 237.888 1107.07 237.888ZM1121.6 227.496H1124.72V240H1121.6V227.496ZM1115.96 226.416H1130.36V228.864H1115.96V226.416ZM1144.44 240L1143.91 234.96L1144.53 233.208L1143.91 231.48L1144.44 226.416H1147.65L1146.93 233.208L1147.65 240H1144.44ZM1145.4 233.208C1145.09 234.632 1144.59 235.88 1143.89 236.952C1143.18 238.024 1142.31 238.856 1141.27 239.448C1140.25 240.04 1139.1 240.336 1137.84 240.336C1136.51 240.336 1135.33 240.04 1134.31 239.448C1133.29 238.84 1132.49 238 1131.91 236.928C1131.33 235.856 1131.05 234.616 1131.05 233.208C1131.05 231.784 1131.33 230.544 1131.91 229.488C1132.49 228.416 1133.29 227.584 1134.31 226.992C1135.33 226.384 1136.51 226.08 1137.84 226.08C1139.1 226.08 1140.25 226.376 1141.27 226.968C1142.31 227.56 1143.18 228.392 1143.89 229.464C1144.61 230.52 1145.11 231.768 1145.4 233.208ZM1134.21 233.208C1134.21 234.12 1134.4 234.928 1134.77 235.632C1135.15 236.32 1135.67 236.864 1136.33 237.264C1136.98 237.648 1137.73 237.84 1138.58 237.84C1139.45 237.84 1140.25 237.648 1140.98 237.264C1141.72 236.864 1142.37 236.32 1142.93 235.632C1143.5 234.928 1143.96 234.12 1144.29 233.208C1143.96 232.296 1143.5 231.496 1142.93 230.808C1142.37 230.104 1141.72 229.56 1140.98 229.176C1140.25 228.776 1139.45 228.576 1138.58 228.576C1137.73 228.576 1136.98 228.776 1136.33 229.176C1135.67 229.56 1135.15 230.104 1134.77 230.808C1134.4 231.496 1134.21 232.296 1134.21 233.208Z" fill="#067CFF"/>
<rect x="438" y="197" width="342" height="342" rx="15" fill="white"/>
<rect x="438" y="197" width="342" height="342" rx="15" stroke="#067CFF" stroke-width="2"/>
<path d="M565 308.5H575.944C576.803 311.659 578.677 314.448 581.277 316.436C583.878 318.424 587.06 319.501 590.334 319.501C593.608 319.501 596.79 318.424 599.391 316.436C601.991 314.448 603.865 311.659 604.724 308.5H653C654.061 308.5 655.078 308.079 655.828 307.328C656.579 306.578 657 305.561 657 304.5C657 303.439 656.579 302.422 655.828 301.672C655.078 300.921 654.061 300.5 653 300.5H604.724C603.865 297.341 601.991 294.552 599.391 292.564C596.79 290.576 593.608 289.499 590.334 289.499C587.06 289.499 583.878 290.576 581.277 292.564C578.677 294.552 576.803 297.341 575.944 300.5H565C563.939 300.5 562.922 300.921 562.172 301.672C561.421 302.422 561 303.439 561 304.5C561 305.561 561.421 306.578 562.172 307.328C562.922 308.079 563.939 308.5 565 308.5ZM590.332 297.5C591.716 297.5 593.07 297.911 594.221 298.68C595.372 299.449 596.269 300.542 596.799 301.821C597.329 303.1 597.468 304.508 597.197 305.866C596.927 307.224 596.261 308.471 595.282 309.45C594.303 310.429 593.056 311.095 591.698 311.366C590.34 311.636 588.932 311.497 587.653 310.967C586.374 310.437 585.281 309.54 584.512 308.389C583.743 307.238 583.332 305.885 583.332 304.5C583.334 302.644 584.072 300.865 585.385 299.553C586.697 298.24 588.476 297.502 590.332 297.5Z" fill="#067CFF"/>
<path d="M653 333.495H642.056C641.199 330.336 639.325 327.546 636.725 325.557C634.125 323.568 630.942 322.49 627.668 322.49C624.394 322.49 621.211 323.568 618.611 325.557C616.011 327.546 614.137 330.336 613.28 333.495H565C563.939 333.495 562.922 333.917 562.172 334.667C561.421 335.417 561 336.434 561 337.495C561 338.556 561.421 339.574 562.172 340.324C562.922 341.074 563.939 341.495 565 341.495H613.28C614.137 344.655 616.011 347.445 618.611 349.433C621.211 351.422 624.394 352.5 627.668 352.5C630.942 352.5 634.125 351.422 636.725 349.433C639.325 347.445 641.199 344.655 642.056 341.495H653C654.061 341.495 655.078 341.074 655.828 340.324C656.579 339.574 657 338.556 657 337.495C657 336.434 656.579 335.417 655.828 334.667C655.078 333.917 654.061 333.495 653 333.495ZM627.668 344.495C626.284 344.495 624.93 344.085 623.779 343.316C622.628 342.546 621.731 341.453 621.201 340.174C620.671 338.895 620.532 337.487 620.803 336.13C621.073 334.772 621.739 333.524 622.718 332.545C623.697 331.567 624.944 330.9 626.302 330.63C627.66 330.36 629.068 330.498 630.347 331.028C631.626 331.558 632.719 332.455 633.488 333.606C634.257 334.757 634.668 336.111 634.668 337.495C634.666 339.351 633.928 341.13 632.615 342.443C631.303 343.755 629.524 344.493 627.668 344.495Z" fill="#067CFF"/>
<path d="M653 366.5H604.724C603.865 363.341 601.991 360.552 599.391 358.564C596.79 356.576 593.608 355.499 590.334 355.499C587.06 355.499 583.878 356.576 581.277 358.564C578.677 360.552 576.803 363.341 575.944 366.5H565C563.939 366.5 562.922 366.921 562.172 367.672C561.421 368.422 561 369.439 561 370.5C561 371.561 561.421 372.578 562.172 373.328C562.922 374.079 563.939 374.5 565 374.5H575.944C576.803 377.659 578.677 380.448 581.277 382.436C583.878 384.424 587.06 385.501 590.334 385.501C593.608 385.501 596.79 384.424 599.391 382.436C601.991 380.448 603.865 377.659 604.724 374.5H653C654.061 374.5 655.078 374.079 655.828 373.328C656.579 372.578 657 371.561 657 370.5C657 369.439 656.579 368.422 655.828 367.672C655.078 366.921 654.061 366.5 653 366.5ZM590.332 377.5C588.948 377.5 587.594 377.089 586.443 376.32C585.292 375.551 584.395 374.458 583.865 373.179C583.335 371.9 583.196 370.492 583.467 369.134C583.737 367.777 584.403 366.529 585.382 365.55C586.361 364.571 587.609 363.905 588.966 363.635C590.324 363.364 591.732 363.503 593.011 364.033C594.29 364.563 595.383 365.46 596.152 366.611C596.921 367.762 597.332 369.116 597.332 370.5C597.329 372.356 596.59 374.134 595.278 375.446C593.966 376.758 592.188 377.497 590.332 377.5Z" fill="#067CFF"/>
<path d="M454.475 430.701H462.875C464.219 430.701 465.355 430.933 466.283 431.397C467.227 431.845 467.939 432.477 468.419 433.293C468.915 434.093 469.163 435.037 469.163 436.125C469.163 437.197 468.907 438.141 468.395 438.957C467.883 439.757 467.155 440.381 466.211 440.829C465.267 441.277 464.155 441.501 462.875 441.501H451.931L453.347 431.997L451.931 423.501H467.675V426.141H453.923L455.123 424.533L456.371 431.949L455.075 440.541L453.851 438.957H462.587C463.627 438.957 464.451 438.701 465.059 438.189C465.683 437.661 465.995 436.949 465.995 436.053C465.995 435.157 465.683 434.453 465.059 433.941C464.435 433.413 463.603 433.149 462.563 433.149H454.475V430.701ZM479.113 441.837C477.465 441.837 476.017 441.541 474.769 440.949C473.537 440.341 472.569 439.501 471.865 438.429C471.177 437.357 470.833 436.117 470.833 434.709C470.833 433.285 471.177 432.045 471.865 430.989C472.569 429.917 473.537 429.085 474.769 428.493C476.017 427.885 477.465 427.581 479.113 427.581C480.761 427.581 482.201 427.885 483.433 428.493C484.681 429.085 485.649 429.917 486.337 430.989C487.041 432.045 487.393 433.285 487.393 434.709C487.393 436.117 487.041 437.357 486.337 438.429C485.649 439.501 484.681 440.341 483.433 440.949C482.201 441.541 480.761 441.837 479.113 441.837ZM479.113 439.389C480.169 439.389 481.073 439.197 481.825 438.813C482.593 438.429 483.185 437.893 483.601 437.205C484.017 436.501 484.225 435.669 484.225 434.709C484.225 433.749 484.017 432.925 483.601 432.237C483.185 431.533 482.593 430.989 481.825 430.605C481.073 430.221 480.169 430.029 479.113 430.029C478.073 430.029 477.169 430.221 476.401 430.605C475.633 430.989 475.041 431.533 474.625 432.237C474.209 432.925 474.001 433.749 474.001 434.709C474.001 435.669 474.209 436.501 474.625 437.205C475.041 437.893 475.633 438.429 476.401 438.813C477.169 439.197 478.073 439.389 479.113 439.389ZM491.837 427.917H505.205V441.501H502.085V428.877L503.525 430.317H493.397L494.741 429.213C494.821 430.205 494.885 431.149 494.933 432.045C494.997 432.925 495.029 433.717 495.029 434.421C495.029 436.981 494.669 438.845 493.949 440.013C493.229 441.181 492.069 441.765 490.469 441.765C490.037 441.765 489.621 441.717 489.221 441.621C488.821 441.525 488.437 441.373 488.069 441.165V438.837C488.357 438.949 488.637 439.037 488.909 439.101C489.197 439.165 489.461 439.197 489.701 439.197C490.581 439.197 491.213 438.789 491.597 437.973C491.997 437.157 492.197 435.829 492.197 433.989C492.197 433.189 492.165 432.277 492.101 431.253C492.053 430.229 491.965 429.117 491.837 427.917ZM508.515 441.501V427.917H511.635V440.637L510.531 439.197H516.339C517.187 439.197 517.851 438.989 518.331 438.573C518.811 438.141 519.051 437.557 519.051 436.821C519.051 436.069 518.811 435.485 518.331 435.069C517.851 434.637 517.187 434.421 516.339 434.421H510.627V432.189H516.747C517.851 432.189 518.811 432.389 519.627 432.789C520.443 433.173 521.075 433.717 521.523 434.421C521.987 435.109 522.219 435.917 522.219 436.845C522.219 437.773 521.987 438.589 521.523 439.293C521.075 439.997 520.443 440.541 519.627 440.925C518.811 441.309 517.859 441.501 516.771 441.501H508.515ZM524.406 441.501V427.917H527.526V440.037L526.566 439.101H535.206L534.678 440.037V427.917H537.798V440.037L537.03 439.101H545.91L544.95 440.037V427.917H548.07V441.501H524.406ZM558.895 441.837C557.247 441.837 555.799 441.541 554.551 440.949C553.319 440.341 552.351 439.501 551.647 438.429C550.959 437.357 550.615 436.117 550.615 434.709C550.615 433.285 550.959 432.045 551.647 430.989C552.351 429.917 553.319 429.085 554.551 428.493C555.799 427.885 557.247 427.581 558.895 427.581C560.543 427.581 561.983 427.885 563.215 428.493C564.463 429.085 565.431 429.917 566.119 430.989C566.823 432.045 567.175 433.285 567.175 434.709C567.175 436.117 566.823 437.357 566.119 438.429C565.431 439.501 564.463 440.341 563.215 440.949C561.983 441.541 560.543 441.837 558.895 441.837ZM558.895 439.389C559.951 439.389 560.855 439.197 561.607 438.813C562.375 438.429 562.967 437.893 563.383 437.205C563.799 436.501 564.007 435.669 564.007 434.709C564.007 433.749 563.799 432.925 563.383 432.237C562.967 431.533 562.375 430.989 561.607 430.605C560.855 430.221 559.951 430.029 558.895 430.029C557.855 430.029 556.951 430.221 556.183 430.605C555.415 430.989 554.823 431.533 554.407 432.237C553.991 432.925 553.783 433.749 553.783 434.709C553.783 435.669 553.991 436.501 554.407 437.205C554.823 437.893 555.415 438.429 556.183 438.813C556.951 439.197 557.855 439.389 558.895 439.389ZM569.711 441.501V427.917H572.783V439.941L571.847 439.725L581.135 427.917H585.167V441.501H582.095V429.309L583.055 429.549L573.647 441.501H569.711ZM577.367 426.549C575.927 426.549 574.767 426.189 573.887 425.469C573.023 424.749 572.487 423.709 572.279 422.349H574.799C574.927 423.085 575.215 423.653 575.663 424.053C576.111 424.437 576.679 424.629 577.367 424.629C578.055 424.629 578.623 424.437 579.071 424.053C579.519 423.653 579.807 423.085 579.935 422.349H582.431C582.239 423.709 581.703 424.749 580.823 425.469C579.943 426.189 578.791 426.549 577.367 426.549ZM606.86 445.461V437.397L607.148 436.293V432.981L606.86 431.853V423.021H609.932V431.877L609.644 432.981V436.269L609.932 437.397V445.461H606.86ZM608.732 434.709C609.036 433.269 609.524 432.021 610.196 430.965C610.868 429.893 611.7 429.061 612.692 428.469C613.7 427.877 614.828 427.581 616.076 427.581C617.388 427.581 618.54 427.885 619.532 428.493C620.524 429.085 621.3 429.917 621.86 430.989C622.42 432.045 622.7 433.285 622.7 434.709C622.7 436.117 622.42 437.357 621.86 438.429C621.3 439.501 620.524 440.341 619.532 440.949C618.54 441.541 617.388 441.837 616.076 441.837C614.828 441.837 613.7 441.541 612.692 440.949C611.7 440.357 610.868 439.525 610.196 438.453C609.524 437.381 609.036 436.133 608.732 434.709ZM619.532 434.709C619.532 433.797 619.348 432.997 618.98 432.309C618.628 431.605 618.14 431.061 617.516 430.677C616.892 430.277 616.164 430.077 615.332 430.077C614.068 430.077 612.956 430.509 611.996 431.373C611.036 432.221 610.3 433.333 609.788 434.709C610.3 436.069 611.036 437.189 611.996 438.069C612.956 438.933 614.068 439.365 615.332 439.365C616.164 439.365 616.892 439.165 617.516 438.765C618.14 438.365 618.628 437.821 618.98 437.133C619.348 436.429 619.532 435.621 619.532 434.709ZM608.06 434.709C607.772 436.133 607.284 437.381 606.596 438.453C605.924 439.525 605.092 440.357 604.1 440.949C603.108 441.541 601.988 441.837 600.74 441.837C599.428 441.837 598.276 441.541 597.284 440.949C596.292 440.341 595.516 439.501 594.956 438.429C594.396 437.357 594.116 436.117 594.116 434.709C594.116 433.285 594.396 432.045 594.956 430.989C595.516 429.917 596.292 429.085 597.284 428.493C598.276 427.885 599.428 427.581 600.74 427.581C601.988 427.581 603.108 427.877 604.1 428.469C605.092 429.061 605.924 429.893 606.596 430.965C607.284 432.021 607.772 433.269 608.06 434.709ZM597.284 434.709C597.284 435.621 597.46 436.429 597.812 437.133C598.164 437.821 598.652 438.365 599.276 438.765C599.916 439.165 600.644 439.365 601.46 439.365C602.74 439.365 603.852 438.933 604.796 438.069C605.756 437.189 606.5 436.069 607.028 434.709C606.5 433.333 605.756 432.221 604.796 431.373C603.852 430.509 602.74 430.077 601.46 430.077C600.644 430.077 599.916 430.277 599.276 430.677C598.652 431.061 598.164 431.605 597.812 432.309C597.46 432.997 597.284 433.797 597.284 434.709ZM627.889 445.797C627.089 445.797 626.361 445.693 625.705 445.485C625.065 445.293 624.465 445.021 623.905 444.669V442.293C624.513 442.677 625.089 442.957 625.633 443.133C626.193 443.309 626.817 443.397 627.505 443.397C628.161 443.397 628.745 443.245 629.257 442.941C629.769 442.653 630.193 442.141 630.529 441.405L636.649 427.917H639.961L632.929 442.461C632.545 443.261 632.089 443.901 631.561 444.381C631.049 444.877 630.481 445.237 629.857 445.461C629.249 445.685 628.593 445.797 627.889 445.797ZM629.449 441.069L623.209 427.917H626.641L632.545 441.069H629.449ZM641.781 427.917H644.877V441.501H641.781V427.917ZM653.325 427.917H656.421V441.501H653.325V427.917ZM643.533 433.413H654.621V435.813H643.533V433.413ZM659.734 441.501V427.917H662.854V438.861L661.918 438.525L670.582 427.917H674.134L662.614 441.501H659.734ZM670.918 441.501L666.694 434.781L668.878 432.813L674.566 441.501H670.918ZM676.117 441.501V427.917H679.189V439.941L678.253 439.725L687.541 427.917H691.573V441.501H688.501V429.309L689.461 429.549L680.053 441.501H676.117ZM702.402 441.837C700.754 441.837 699.306 441.541 698.058 440.949C696.826 440.341 695.858 439.501 695.154 438.429C694.466 437.357 694.122 436.117 694.122 434.709C694.122 433.285 694.466 432.045 695.154 430.989C695.858 429.917 696.826 429.085 698.058 428.493C699.306 427.885 700.754 427.581 702.402 427.581C704.05 427.581 705.49 427.885 706.722 428.493C707.97 429.085 708.938 429.917 709.626 430.989C710.33 432.045 710.682 433.285 710.682 434.709C710.682 436.117 710.33 437.357 709.626 438.429C708.938 439.501 707.97 440.341 706.722 440.949C705.49 441.541 704.05 441.837 702.402 441.837ZM702.402 439.389C703.458 439.389 704.362 439.197 705.114 438.813C705.882 438.429 706.474 437.893 706.89 437.205C707.306 436.501 707.514 435.669 707.514 434.709C707.514 433.749 707.306 432.925 706.89 432.237C706.474 431.533 705.882 430.989 705.114 430.605C704.362 430.221 703.458 430.029 702.402 430.029C701.362 430.029 700.458 430.221 699.69 430.605C698.922 430.989 698.33 431.533 697.914 432.237C697.498 432.925 697.29 433.749 697.29 434.709C697.29 435.669 697.498 436.501 697.914 437.205C698.33 437.893 698.922 438.429 699.69 438.813C700.458 439.197 701.362 439.389 702.402 439.389ZM713.219 427.917H716.315V441.501H713.219V427.917ZM724.763 427.917H727.859V441.501H724.763V427.917ZM714.971 433.413H726.059V435.813H714.971V433.413ZM743.844 441.501L743.316 436.461L743.94 434.709L743.316 432.981L743.844 427.917H747.06L746.34 434.709L747.06 441.501H743.844ZM744.804 434.709C744.5 436.133 743.996 437.381 743.292 438.453C742.588 439.525 741.716 440.357 740.676 440.949C739.652 441.541 738.508 441.837 737.244 441.837C735.916 441.837 734.74 441.541 733.716 440.949C732.692 440.341 731.892 439.501 731.316 438.429C730.74 437.357 730.452 436.117 730.452 434.709C730.452 433.285 730.74 432.045 731.316 430.989C731.892 429.917 732.692 429.085 733.716 428.493C734.74 427.885 735.916 427.581 737.244 427.581C738.508 427.581 739.652 427.877 740.676 428.469C741.716 429.061 742.588 429.893 743.292 430.965C744.012 432.021 744.516 433.269 744.804 434.709ZM733.62 434.709C733.62 435.621 733.804 436.429 734.172 437.133C734.556 437.821 735.076 438.365 735.732 438.765C736.388 439.149 737.14 439.341 737.988 439.341C738.852 439.341 739.652 439.149 740.388 438.765C741.124 438.365 741.772 437.821 742.332 437.133C742.908 436.429 743.364 435.621 743.7 434.709C743.364 433.797 742.908 432.997 742.332 432.309C741.772 431.605 741.124 431.061 740.388 430.677C739.652 430.277 738.852 430.077 737.988 430.077C737.14 430.077 736.388 430.277 735.732 430.677C735.076 431.061 734.556 431.605 734.172 432.309C733.804 432.997 733.62 433.797 733.62 434.709ZM752.438 427.917H765.806V441.501H762.686V428.877L764.126 430.317H753.998L755.342 429.213C755.422 430.205 755.486 431.149 755.534 432.045C755.598 432.925 755.63 433.717 755.63 434.421C755.63 436.981 755.27 438.845 754.55 440.013C753.83 441.181 752.67 441.765 751.07 441.765C750.638 441.765 750.222 441.717 749.822 441.621C749.422 441.525 749.038 441.373 748.67 441.165V438.837C748.958 438.949 749.238 439.037 749.51 439.101C749.798 439.165 750.062 439.197 750.302 439.197C751.182 439.197 751.814 438.789 752.198 437.973C752.598 437.157 752.798 435.829 752.798 433.989C752.798 433.189 752.766 432.277 752.702 431.253C752.654 430.229 752.566 429.117 752.438 427.917Z" fill="#067CFF"/>
</g>
<defs>
<filter id="filter0_d_475_231" x="0.4" y="0.4" width="1217.2" height="544.2" filterUnits="userSpaceOnUse" color-interpolation-filters="sRGB">
<feFlood flood-opacity="0" result="BackgroundImageFix"/>
<feColorMatrix in="SourceAlpha" type="matrix" values="0 0 0 0 0 0 0 0 0 0 0 0 0 0 0 0 0 0 127 0" result="hardAlpha"/>
<feOffset/>
<feGaussianBlur stdDeviation="2.3"/>
<feComposite in2="hardAlpha" operator="out"/>
<feColorMatrix type="matrix" values="0 0 0 0 0.0235294 0 0 0 0 0.486275 0 0 0 0 1 0 0 0 0.5 0"/>
<feBlend mode="normal" in2="BackgroundImageFix" result="effect1_dropShadow_475_231"/>
<feBlend mode="normal" in="SourceGraphic" in2="effect1_dropShadow_475_231" result="shape"/>
</filter>
</defs>
</svg>
